<svg width="24" height="24" viewBox="0 0 24 24" fill="none" xmlns="http://www.w3.org/2000/svg">
<g clip-path="url(#clip0_2040_146)">
<path d="M12 20.148L7.22703 15.3751C4.59099 12.739 4.59099 8.46512 7.22703 5.82908C9.86307 3.19304 14.1369 3.19304 16.773 5.82908C19.409 8.46512 19.409 12.739 16.773 15.3751L12 20.148ZM15.7123 14.3143C17.7625 12.2641 17.7625 8.93999 15.7123 6.88974C13.6621 4.83949 10.3379 4.83949 8.28769 6.88974C6.23744 8.93999 6.23744 12.2641 8.28769 14.3143L12 18.0267L15.7123 14.3143ZM12 12.1021C11.1715 12.1021 10.5 11.4305 10.5 10.6021C10.5 9.77362 11.1715 9.10205 12 9.10205C12.8285 9.10205 13.5 9.77362 13.5 10.6021C13.5 11.4305 12.8285 12.1021 12 12.1021Z" fill="white" fill-opacity="0.6"/>
</g>
<defs>
<clipPath id="clip0_2040_146">
<rect width="24" height="24" fill="white"/>
</clipPath>
</defs>
</svg>
