<svg
  width="24"
  height="24"
  viewBox="0 0 24 24"
  fill="none"
  xmlns="http://www.w3.org/2000/svg"
>
  <g clip-path="url(#clip0_2040_151)">
    <path
      d="M9.75 4.5V6H14.25V4.5H15.75V6H18.75C19.1642 6 19.5 6.33579 19.5 6.75V18.75C19.5 19.1642 19.1642 19.5 18.75 19.5H5.25C4.83579 19.5 4.5 19.1642 4.5 18.75V6.75C4.5 6.33579 4.83579 6 5.25 6H8.25V4.5H9.75ZM18 12H6V18H18V12ZM8.25 7.5H6V10.5H18V7.5H15.75V9H14.25V7.5H9.75V9H8.25V7.5Z"
      fill="white"
      fill-opacity="0.6"
    />
  </g>
  <defs>
    <clipPath id="clip0_2040_151">
      <rect width="24" height="24" fill="white" />
    </clipPath>
  </defs>
</svg>
